<mxfile host="Electron" agent="Mozilla/5.0 (Macintosh; Intel Mac OS X 10_15_7) AppleWebKit/537.36 (KHTML, like Gecko) draw.io/26.0.9 Chrome/128.0.6613.186 Electron/32.2.5 Safari/537.36" version="26.0.9">
  <diagram name="GuardDuty-SecurityHub-Integration" id="yI1X83qPyU3N3H1wmeOQ">
    <mxGraphModel dx="1036" dy="786" grid="1" gridSize="10" guides="1" tooltips="1" connect="1" arrows="1" fold="1" page="1" pageScale="1" pageWidth="850" pageHeight="1100" math="0" shadow="0">
      <root>
        <mxCell id="0" />
        <mxCell id="1" parent="0" />
        <mxCell id="tZun-4rwqbDl-XKAbTf--1" value="All regions" style="points=[[0,0],[0.25,0],[0.5,0],[0.75,0],[1,0],[1,0.25],[1,0.5],[1,0.75],[1,1],[0.75,1],[0.5,1],[0.25,1],[0,1],[0,0.75],[0,0.5],[0,0.25]];outlineConnect=0;gradientColor=none;html=1;whiteSpace=wrap;fontSize=12;fontStyle=0;container=1;pointerEvents=0;collapsible=0;recursiveResize=0;shape=mxgraph.aws4.group;grIcon=mxgraph.aws4.group_region;strokeColor=#147EBA;fillColor=none;verticalAlign=top;align=left;spacingLeft=30;fontColor=#147EBA;dashed=1;" parent="1" vertex="1">
          <mxGeometry x="120" y="200" width="1240" height="560" as="geometry" />
        </mxCell>
        <mxCell id="KwW78p_zFLmndmRcypET-8" value="&lt;div class=&quot;awsui_child_18582_uh010_103&quot;&gt;&lt;strong class=&quot;awsui_root_18wu0_1iaas_99 awsui_box_18wu0_1iaas_219 awsui_strong-variant_18wu0_1iaas_219 awsui_color-default_18wu0_1iaas_219 awsui_font-size-default_18wu0_1iaas_235 awsui_font-weight-default_18wu0_1iaas_275&quot;&gt;audit-account&lt;/strong&gt;&lt;/div&gt;" style="points=[[0,0],[0.25,0],[0.5,0],[0.75,0],[1,0],[1,0.25],[1,0.5],[1,0.75],[1,1],[0.75,1],[0.5,1],[0.25,1],[0,1],[0,0.75],[0,0.5],[0,0.25]];outlineConnect=0;gradientColor=none;html=1;whiteSpace=wrap;fontSize=12;fontStyle=0;container=1;pointerEvents=0;collapsible=0;recursiveResize=0;shape=mxgraph.aws4.group;grIcon=mxgraph.aws4.group_account;strokeColor=#CD2264;fillColor=none;verticalAlign=top;align=left;spacingLeft=30;fontColor=#CD2264;dashed=0;" parent="tZun-4rwqbDl-XKAbTf--1" vertex="1">
          <mxGeometry x="480" y="40" width="720" height="480" as="geometry" />
        </mxCell>
        <mxCell id="2jqkjIjjTv4v8Ln7UvpH-21" value="EventBridge" style="sketch=0;points=[[0,0,0],[0.25,0,0],[0.5,0,0],[0.75,0,0],[1,0,0],[0,1,0],[0.25,1,0],[0.5,1,0],[0.75,1,0],[1,1,0],[0,0.25,0],[0,0.5,0],[0,0.75,0],[1,0.25,0],[1,0.5,0],[1,0.75,0]];outlineConnect=0;fontColor=#232F3E;fillColor=#E7157B;strokeColor=#ffffff;dashed=0;verticalLabelPosition=bottom;verticalAlign=top;align=center;html=1;fontSize=12;fontStyle=0;aspect=fixed;shape=mxgraph.aws4.resourceIcon;resIcon=mxgraph.aws4.eventbridge;" parent="KwW78p_zFLmndmRcypET-8" vertex="1">
          <mxGeometry x="343" y="310" width="40" height="40" as="geometry" />
        </mxCell>
        <mxCell id="2jqkjIjjTv4v8Ln7UvpH-26" style="edgeStyle=orthogonalEdgeStyle;rounded=0;orthogonalLoop=1;jettySize=auto;html=1;" parent="KwW78p_zFLmndmRcypET-8" source="2jqkjIjjTv4v8Ln7UvpH-22" target="2jqkjIjjTv4v8Ln7UvpH-23" edge="1">
          <mxGeometry relative="1" as="geometry" />
        </mxCell>
        <mxCell id="2jqkjIjjTv4v8Ln7UvpH-27" value="Findings Update" style="edgeLabel;html=1;align=center;verticalAlign=middle;resizable=0;points=[];" parent="2jqkjIjjTv4v8Ln7UvpH-26" vertex="1" connectable="0">
          <mxGeometry x="-0.3125" y="-1" relative="1" as="geometry">
            <mxPoint x="10" as="offset" />
          </mxGeometry>
        </mxCell>
        <mxCell id="2jqkjIjjTv4v8Ln7UvpH-23" value="Multi region/account&lt;div&gt;SecurityHub&lt;/div&gt;" style="sketch=0;points=[[0,0,0],[0.25,0,0],[0.5,0,0],[0.75,0,0],[1,0,0],[0,1,0],[0.25,1,0],[0.5,1,0],[0.75,1,0],[1,1,0],[0,0.25,0],[0,0.5,0],[0,0.75,0],[1,0.25,0],[1,0.5,0],[1,0.75,0]];outlineConnect=0;fontColor=#232F3E;fillColor=#DD344C;strokeColor=#ffffff;dashed=0;verticalLabelPosition=bottom;verticalAlign=top;align=center;html=1;fontSize=12;fontStyle=0;aspect=fixed;shape=mxgraph.aws4.resourceIcon;resIcon=mxgraph.aws4.security_hub;" parent="KwW78p_zFLmndmRcypET-8" vertex="1">
          <mxGeometry x="582.9999999999999" y="310.87" width="40" height="40" as="geometry" />
        </mxCell>
        <mxCell id="2jqkjIjjTv4v8Ln7UvpH-24" style="edgeStyle=orthogonalEdgeStyle;rounded=0;orthogonalLoop=1;jettySize=auto;html=1;entryX=0;entryY=0.5;entryDx=0;entryDy=0;entryPerimeter=0;" parent="KwW78p_zFLmndmRcypET-8" source="2jqkjIjjTv4v8Ln7UvpH-17" target="2jqkjIjjTv4v8Ln7UvpH-21" edge="1">
          <mxGeometry relative="1" as="geometry" />
        </mxCell>
        <mxCell id="2jqkjIjjTv4v8Ln7UvpH-25" style="edgeStyle=orthogonalEdgeStyle;rounded=0;orthogonalLoop=1;jettySize=auto;html=1;entryX=0;entryY=0.5;entryDx=0;entryDy=0;entryPerimeter=0;" parent="KwW78p_zFLmndmRcypET-8" source="2jqkjIjjTv4v8Ln7UvpH-21" target="2jqkjIjjTv4v8Ln7UvpH-22" edge="1">
          <mxGeometry relative="1" as="geometry" />
        </mxCell>
        <mxCell id="2jqkjIjjTv4v8Ln7UvpH-22" value="Lambda&lt;div&gt;SecurityHub&lt;/div&gt;&lt;div&gt;AutoClose&lt;/div&gt;" style="outlineConnect=0;dashed=0;verticalLabelPosition=bottom;verticalAlign=top;align=center;html=1;shape=mxgraph.aws3.lambda_function;fillColor=#F58534;gradientColor=none;aspect=fixed;" parent="KwW78p_zFLmndmRcypET-8" vertex="1">
          <mxGeometry x="433" y="310" width="40" height="41.74" as="geometry" />
        </mxCell>
        <mxCell id="2jqkjIjjTv4v8Ln7UvpH-17" value="Regional&lt;div&gt;GuardDuty&lt;br&gt;Master&lt;/div&gt;" style="sketch=0;points=[[0,0,0],[0.25,0,0],[0.5,0,0],[0.75,0,0],[1,0,0],[0,1,0],[0.25,1,0],[0.5,1,0],[0.75,1,0],[1,1,0],[0,0.25,0],[0,0.5,0],[0,0.75,0],[1,0.25,0],[1,0.5,0],[1,0.75,0]];outlineConnect=0;fontColor=#232F3E;fillColor=#DD344C;strokeColor=#ffffff;dashed=0;verticalLabelPosition=bottom;verticalAlign=top;align=center;html=1;fontSize=12;fontStyle=0;aspect=fixed;shape=mxgraph.aws4.resourceIcon;resIcon=mxgraph.aws4.guardduty;" parent="KwW78p_zFLmndmRcypET-8" vertex="1">
          <mxGeometry x="244" y="310" width="40" height="40" as="geometry" />
        </mxCell>
        <mxCell id="2jqkjIjjTv4v8Ln7UvpH-28" value="Actor" style="shape=umlActor;verticalLabelPosition=bottom;verticalAlign=top;html=1;outlineConnect=0;" parent="KwW78p_zFLmndmRcypET-8" vertex="1">
          <mxGeometry x="90" y="300" width="30" height="60" as="geometry" />
        </mxCell>
        <mxCell id="2jqkjIjjTv4v8Ln7UvpH-29" style="edgeStyle=orthogonalEdgeStyle;rounded=0;orthogonalLoop=1;jettySize=auto;html=1;entryX=0;entryY=0.5;entryDx=0;entryDy=0;entryPerimeter=0;" parent="KwW78p_zFLmndmRcypET-8" source="2jqkjIjjTv4v8Ln7UvpH-28" target="2jqkjIjjTv4v8Ln7UvpH-17" edge="1">
          <mxGeometry relative="1" as="geometry" />
        </mxCell>
        <mxCell id="2jqkjIjjTv4v8Ln7UvpH-30" value="Manual Updates" style="edgeLabel;html=1;align=center;verticalAlign=middle;resizable=0;points=[];" parent="2jqkjIjjTv4v8Ln7UvpH-29" vertex="1" connectable="0">
          <mxGeometry x="-0.4" y="-4" relative="1" as="geometry">
            <mxPoint x="16" y="-4" as="offset" />
          </mxGeometry>
        </mxCell>
        <mxCell id="TeC9qtTKMoKtvhL52Ll3-1" value="On a schedule" style="html=1;verticalLabelPosition=bottom;align=center;labelBackgroundColor=#ffffff;verticalAlign=top;strokeWidth=2;strokeColor=#0080F0;shadow=0;dashed=0;shape=mxgraph.ios7.icons.clock;" parent="KwW78p_zFLmndmRcypET-8" vertex="1">
          <mxGeometry x="90.15" y="125.74000000000001" width="30" height="30" as="geometry" />
        </mxCell>
        <mxCell id="TeC9qtTKMoKtvhL52Ll3-2" value="EventBridge" style="sketch=0;points=[[0,0,0],[0.25,0,0],[0.5,0,0],[0.75,0,0],[1,0,0],[0,1,0],[0.25,1,0],[0.5,1,0],[0.75,1,0],[1,1,0],[0,0.25,0],[0,0.5,0],[0,0.75,0],[1,0.25,0],[1,0.5,0],[1,0.75,0]];outlineConnect=0;fontColor=#232F3E;fillColor=#E7157B;strokeColor=#ffffff;dashed=0;verticalLabelPosition=bottom;verticalAlign=top;align=center;html=1;fontSize=12;fontStyle=0;aspect=fixed;shape=mxgraph.aws4.resourceIcon;resIcon=mxgraph.aws4.eventbridge;" parent="KwW78p_zFLmndmRcypET-8" vertex="1">
          <mxGeometry x="299.15" y="120" width="40" height="40" as="geometry" />
        </mxCell>
        <mxCell id="TeC9qtTKMoKtvhL52Ll3-3" value="Lambda&lt;div&gt;GuardDuty&lt;/div&gt;&lt;div&gt;Auto-Archive&lt;/div&gt;" style="outlineConnect=0;dashed=0;verticalLabelPosition=bottom;verticalAlign=top;align=center;html=1;shape=mxgraph.aws3.lambda_function;fillColor=#F58534;gradientColor=none;aspect=fixed;" parent="KwW78p_zFLmndmRcypET-8" vertex="1">
          <mxGeometry x="409.84999999999997" y="120" width="40" height="41.74" as="geometry" />
        </mxCell>
        <mxCell id="TeC9qtTKMoKtvhL52Ll3-4" style="edgeStyle=orthogonalEdgeStyle;rounded=0;orthogonalLoop=1;jettySize=auto;html=1;entryX=0;entryY=0.5;entryDx=0;entryDy=0;entryPerimeter=0;" parent="KwW78p_zFLmndmRcypET-8" source="TeC9qtTKMoKtvhL52Ll3-1" target="TeC9qtTKMoKtvhL52Ll3-2" edge="1">
          <mxGeometry relative="1" as="geometry" />
        </mxCell>
        <mxCell id="TeC9qtTKMoKtvhL52Ll3-9" value="Automatic Updates" style="edgeLabel;html=1;align=center;verticalAlign=middle;resizable=0;points=[];" parent="TeC9qtTKMoKtvhL52Ll3-4" vertex="1" connectable="0">
          <mxGeometry x="-0.3395" y="3" relative="1" as="geometry">
            <mxPoint x="23" as="offset" />
          </mxGeometry>
        </mxCell>
        <mxCell id="TeC9qtTKMoKtvhL52Ll3-5" style="edgeStyle=orthogonalEdgeStyle;rounded=0;orthogonalLoop=1;jettySize=auto;html=1;entryX=0;entryY=0.5;entryDx=0;entryDy=0;entryPerimeter=0;" parent="KwW78p_zFLmndmRcypET-8" source="TeC9qtTKMoKtvhL52Ll3-2" target="TeC9qtTKMoKtvhL52Ll3-3" edge="1">
          <mxGeometry relative="1" as="geometry" />
        </mxCell>
        <mxCell id="TeC9qtTKMoKtvhL52Ll3-8" style="edgeStyle=orthogonalEdgeStyle;rounded=0;orthogonalLoop=1;jettySize=auto;html=1;entryX=0.5;entryY=0;entryDx=0;entryDy=0;entryPerimeter=0;" parent="KwW78p_zFLmndmRcypET-8" source="TeC9qtTKMoKtvhL52Ll3-3" target="2jqkjIjjTv4v8Ln7UvpH-17" edge="1">
          <mxGeometry relative="1" as="geometry">
            <Array as="points">
              <mxPoint x="490.15" y="141" />
              <mxPoint x="490.15" y="240" />
              <mxPoint x="264.15" y="240" />
            </Array>
          </mxGeometry>
        </mxCell>
        <mxCell id="2jqkjIjjTv4v8Ln7UvpH-18" value="" style="rounded=1;arcSize=10;dashed=1;fillColor=none;gradientColor=none;dashPattern=1 1;strokeWidth=2;" parent="KwW78p_zFLmndmRcypET-8" vertex="1">
          <mxGeometry x="40" y="39" width="640" height="402" as="geometry" />
        </mxCell>
        <mxCell id="2jqkjIjjTv4v8Ln7UvpH-19" value="SecurityHub Integration - All Active regions" style="text;html=1;align=left;verticalAlign=middle;resizable=0;points=[];autosize=1;strokeColor=default;fillColor=none;fontStyle=1" parent="KwW78p_zFLmndmRcypET-8" vertex="1">
          <mxGeometry x="90" y="39" width="250" height="30" as="geometry" />
        </mxCell>
        <mxCell id="tZun-4rwqbDl-XKAbTf--2" value="org-root-account" style="points=[[0,0],[0.25,0],[0.5,0],[0.75,0],[1,0],[1,0.25],[1,0.5],[1,0.75],[1,1],[0.75,1],[0.5,1],[0.25,1],[0,1],[0,0.75],[0,0.5],[0,0.25]];outlineConnect=0;gradientColor=none;html=1;whiteSpace=wrap;fontSize=12;fontStyle=0;container=1;pointerEvents=0;collapsible=0;recursiveResize=0;shape=mxgraph.aws4.group;grIcon=mxgraph.aws4.group_account;strokeColor=#CD2264;fillColor=none;verticalAlign=top;align=left;spacingLeft=30;fontColor=#CD2264;dashed=0;" parent="tZun-4rwqbDl-XKAbTf--1" vertex="1">
          <mxGeometry x="40" y="160" width="240" height="120" as="geometry" />
        </mxCell>
        <mxCell id="tZun-4rwqbDl-XKAbTf--4" value="S3 Code Source" style="sketch=0;outlineConnect=0;fontColor=#232F3E;gradientColor=none;fillColor=#7AA116;strokeColor=none;dashed=0;verticalLabelPosition=bottom;verticalAlign=top;align=center;html=1;fontSize=12;fontStyle=0;aspect=fixed;pointerEvents=1;shape=mxgraph.aws4.bucket;" parent="tZun-4rwqbDl-XKAbTf--2" vertex="1">
          <mxGeometry x="40" y="40" width="40" height="41.6" as="geometry" />
        </mxCell>
        <mxCell id="tZun-4rwqbDl-XKAbTf--5" value="Build StackSets" style="outlineConnect=0;dashed=0;verticalLabelPosition=bottom;verticalAlign=top;align=center;html=1;shape=mxgraph.aws3.cloudformation;fillColor=#759C3E;gradientColor=none;aspect=fixed;" parent="tZun-4rwqbDl-XKAbTf--2" vertex="1">
          <mxGeometry x="160" y="39" width="40" height="48.63" as="geometry" />
        </mxCell>
        <mxCell id="tZun-4rwqbDl-XKAbTf--7" style="edgeStyle=orthogonalEdgeStyle;rounded=0;orthogonalLoop=1;jettySize=auto;html=1;entryX=0.872;entryY=0.557;entryDx=0;entryDy=0;entryPerimeter=0;startArrow=classic;startFill=1;" parent="tZun-4rwqbDl-XKAbTf--2" source="tZun-4rwqbDl-XKAbTf--5" target="tZun-4rwqbDl-XKAbTf--4" edge="1">
          <mxGeometry relative="1" as="geometry" />
        </mxCell>
        <mxCell id="WFsTbnN3U2OS_1xvM0b--26" style="edgeStyle=orthogonalEdgeStyle;rounded=0;orthogonalLoop=1;jettySize=auto;html=1;entryX=0;entryY=0.5;entryDx=0;entryDy=0;" parent="tZun-4rwqbDl-XKAbTf--1" source="tZun-4rwqbDl-XKAbTf--5" target="KwW78p_zFLmndmRcypET-8" edge="1">
          <mxGeometry relative="1" as="geometry">
            <Array as="points">
              <mxPoint x="350" y="240" />
              <mxPoint x="350" y="280" />
            </Array>
          </mxGeometry>
        </mxCell>
      </root>
    </mxGraphModel>
  </diagram>
</mxfile>
